<svg xmlns="http://www.w3.org/2000/svg" style="display:none">
  <!-- Self-hosted SVG sprite (24x24). -->
  <symbol id="i-menu" viewBox="0 0 24 24">
    <path d="M4 6h16M4 12h16M4 18h16" stroke="currentColor" stroke-width="2" fill="none" stroke-linecap="round"/>
  </symbol>

  <symbol id="i-dashboard" viewBox="0 0 24 24">
    <rect x="3.5" y="3.5" width="8" height="8" rx="1.5" stroke="currentColor" stroke-width="2" fill="none"/>
    <rect x="12.5" y="3.5" width="8" height="5.5" rx="1.5" stroke="currentColor" stroke-width="2" fill="none"/>
    <rect x="12.5" y="10.5" width="8" height="10" rx="1.5" stroke="currentColor" stroke-width="2" fill="none"/>
    <rect x="3.5" y="12.5" width="8" height="8" rx="1.5" stroke="currentColor" stroke-width="2" fill="none"/>
  </symbol>

  <symbol id="i-ticket" viewBox="0 0 24 24">
    <path d="M4 8a2 2 0 0 1 2-2h12a2 2 0 0 1 2 2v2a2 2 0 0 0 0 4v2a2 2 0 0 1-2 2H6a2 2 0 0 1-2-2v-2a2 2 0 0 0 0-4V8z" stroke="currentColor" stroke-width="2" fill="none" stroke-linejoin="round"/>
    <path d="M9 9.5h6M9 13h5" stroke="currentColor" stroke-width="2" fill="none" stroke-linecap="round"/>
  </symbol>

  <symbol id="i-swap" viewBox="0 0 24 24">
    <path d="M7 7h11l-2-2m2 2-2 2" stroke="currentColor" stroke-width="2" fill="none" stroke-linecap="round" stroke-linejoin="round"/>
    <path d="M17 17H6l2 2m-2-2 2-2" stroke="currentColor" stroke-width="2" fill="none" stroke-linecap="round" stroke-linejoin="round"/>
  </symbol>

  <symbol id="i-building" viewBox="0 0 24 24">
    <path d="M4 20V6a2 2 0 0 1 2-2h8v16" stroke="currentColor" stroke-width="2" fill="none" stroke-linejoin="round"/>
    <path d="M14 20V10h4a2 2 0 0 1 2 2v8" stroke="currentColor" stroke-width="2" fill="none" stroke-linejoin="round"/>
    <path d="M8 8h2M8 12h2M8 16h2M16 14h2M16 18h2" stroke="currentColor" stroke-width="2" fill="none" stroke-linecap="round"/>
  </symbol>

  <symbol id="i-users" viewBox="0 0 24 24">
    <path d="M16 11a3 3 0 1 0-3-3 3 3 0 0 0 3 3z" stroke="currentColor" stroke-width="2" fill="none"/>
    <path d="M8 12a3 3 0 1 0-3-3 3 3 0 0 0 3 3z" stroke="currentColor" stroke-width="2" fill="none"/>
    <path d="M2.5 20a5.5 5.5 0 0 1 11 0" stroke="currentColor" stroke-width="2" fill="none" stroke-linecap="round"/>
    <path d="M13 20a5 5 0 0 1 9 0" stroke="currentColor" stroke-width="2" fill="none" stroke-linecap="round"/>
  </symbol>

  <symbol id="i-report" viewBox="0 0 24 24">
    <path d="M7 3h7l3 3v15a2 2 0 0 1-2 2H7a2 2 0 0 1-2-2V5a2 2 0 0 1 2-2z" stroke="currentColor" stroke-width="2" fill="none" stroke-linejoin="round"/>
    <path d="M14 3v4h4" stroke="currentColor" stroke-width="2" fill="none" stroke-linejoin="round"/>
    <path d="M8 12h8M8 16h6" stroke="currentColor" stroke-width="2" fill="none" stroke-linecap="round"/>
  </symbol>

  <symbol id="i-lira" viewBox="0 0 24 24">
    <path d="M12 3v18" stroke="currentColor" stroke-width="2" fill="none" stroke-linecap="round"/>
    <path d="M8 8l8-2M8 12l8-2" stroke="currentColor" stroke-width="2" fill="none" stroke-linecap="round"/>
    <path d="M9 21c5-2 7-5 7-10" stroke="currentColor" stroke-width="2" fill="none" stroke-linecap="round"/>
  </symbol>

  <symbol id="i-log" viewBox="0 0 24 24">
    <path d="M8 6h12M8 12h12M8 18h12" stroke="currentColor" stroke-width="2" fill="none" stroke-linecap="round"/>
    <path d="M4 6h.01M4 12h.01M4 18h.01" stroke="currentColor" stroke-width="3" fill="none" stroke-linecap="round"/>
  </symbol>

  <symbol id="i-chevron-down" viewBox="0 0 24 24">
    <path d="M6 9l6 6 6-6" stroke="currentColor" stroke-width="2" fill="none" stroke-linecap="round" stroke-linejoin="round"/>
  </symbol>

  <symbol id="i-user" viewBox="0 0 24 24">
    <path d="M12 12a4 4 0 1 0-4-4 4 4 0 0 0 4 4z" stroke="currentColor" stroke-width="2" fill="none"/>
    <path d="M4 21a8 8 0 0 1 16 0" stroke="currentColor" stroke-width="2" fill="none" stroke-linecap="round"/>
  </symbol>

  <symbol id="i-logout" viewBox="0 0 24 24">
    <path d="M10 17l-1 4H5a2 2 0 0 1-2-2V5a2 2 0 0 1 2-2h4l1 4" stroke="currentColor" stroke-width="2" fill="none" stroke-linejoin="round"/>
    <path d="M15 12H8" stroke="currentColor" stroke-width="2" fill="none" stroke-linecap="round"/>
    <path d="M15 12l-3-3m3 3-3 3" stroke="currentColor" stroke-width="2" fill="none" stroke-linecap="round" stroke-linejoin="round"/>
    <path d="M21 12h-6" stroke="currentColor" stroke-width="2" fill="none" stroke-linecap="round"/>
  </symbol>

  <symbol id="i-settings" viewBox="0 0 24 24">
    <path d="M12 15a3 3 0 1 0-3-3 3 3 0 0 0 3 3z" stroke="currentColor" stroke-width="2" fill="none"/>
    <path d="M19.4 15a7.8 7.8 0 0 0 .1-1l2-1-2-4-2 .7a7.7 7.7 0 0 0-1.7-1L15 4h-6l-.8 3.7a7.7 7.7 0 0 0-1.7 1L4.5 8 2.5 12l2 1a7.8 7.8 0 0 0 .1 1l-2 1 2 4 2-.7a7.7 7.7 0 0 0 1.7 1L9 20h6l.8-3.7a7.7 7.7 0 0 0 1.7-1l2 .7 2-4-2-1z" stroke="currentColor" stroke-width="2" fill="none" stroke-linejoin="round"/>
  </symbol>

  <symbol id="i-search" viewBox="0 0 24 24">
    <path d="M10.5 18a7.5 7.5 0 1 1 7.5-7.5A7.5 7.5 0 0 1 10.5 18z" stroke="currentColor" stroke-width="2" fill="none"/>
    <path d="M16 16l5 5" stroke="currentColor" stroke-width="2" fill="none" stroke-linecap="round"/>
  </symbol>

  <symbol id="i-upload" viewBox="0 0 24 24">
    <path d="M12 3v12" stroke="currentColor" stroke-width="2" fill="none" stroke-linecap="round"/>
    <path d="M7 8l5-5 5 5" stroke="currentColor" stroke-width="2" fill="none" stroke-linecap="round" stroke-linejoin="round"/>
    <path d="M4 14v6a2 2 0 0 0 2 2h12a2 2 0 0 0 2-2v-6" stroke="currentColor" stroke-width="2" fill="none" stroke-linejoin="round"/>
  </symbol>

  <symbol id="i-download" viewBox="0 0 24 24">
    <path d="M12 21V9" stroke="currentColor" stroke-width="2" fill="none" stroke-linecap="round"/>
    <path d="M7 16l5 5 5-5" stroke="currentColor" stroke-width="2" fill="none" stroke-linecap="round" stroke-linejoin="round"/>
    <path d="M4 4v4a2 2 0 0 0 2 2h12a2 2 0 0 0 2-2V4" stroke="currentColor" stroke-width="2" fill="none" stroke-linejoin="round"/>
  </symbol>

  <symbol id="i-check-circle" viewBox="0 0 24 24">
    <path d="M22 12a10 10 0 1 1-10-10 10 10 0 0 1 10 10z" stroke="currentColor" stroke-width="2" fill="none"/>
    <path d="M7.5 12.5l3 3 6-7" stroke="currentColor" stroke-width="2" fill="none" stroke-linecap="round" stroke-linejoin="round"/>
  </symbol>

  <symbol id="i-alert-triangle" viewBox="0 0 24 24">
    <path d="M12 3l10 18H2L12 3z" stroke="currentColor" stroke-width="2" fill="none" stroke-linejoin="round"/>
    <path d="M12 9v5" stroke="currentColor" stroke-width="2" fill="none" stroke-linecap="round"/>
    <path d="M12 17h.01" stroke="currentColor" stroke-width="3" fill="none" stroke-linecap="round"/>
  </symbol>

  <symbol id="i-x" viewBox="0 0 24 24">
    <path d="M6 6l12 12M18 6L6 18" stroke="currentColor" stroke-width="2" fill="none" stroke-linecap="round"/>
  </symbol>
</svg>
